<svg style="enable-background:new 0 0 100 100;" version="1.1" viewBox="0 0 100 100" xml:space="preserve" xmlns="http://www.w3.org/2000/svg" xmlns:xlink="http://www.w3.org/1999/xlink" fill="#ffffff"><g><path d="M49,7.2c0,0,0-0.1,0-0.1c-0.4-1.5-1.6-2.6-3.2-3c-4.3-1.1-19.3,3.2-22.3,6.4c-1.1,1.2-1.5,2.7-1.2,4c0,0.1,0,0.1,0.1,0.2   c0.4,0.9,15.7,25.3,18.7,30.2c1.7,2.8,3.5,4.2,5.5,4.2c0.4,0,0.9-0.1,1.3-0.2c2.4-0.8,3.5-3.2,3.3-7.1C51,36.1,49.2,8.6,49,7.2z"/><path d="M47.9,66.8c-2.1-0.8-4.3-0.3-5.6,1.3c0,0-2.7,3.2-2.9,3.5c0,0,0,0,0,0C28.9,84.1,28.9,84.2,28.6,85.1   c-0.2,0.5-0.3,1.1-0.2,1.7c0.1,0.8,0.4,1.6,1,2.4c2.3,2.8,12.5,6.8,17,6.8c0.3,0,0.6,0,0.9-0.1c1.6-0.3,2.8-1.3,3.3-2.6   c0,0,0,0,0,0c0.3-0.8,0.3-0.9,0.4-15.7c0-2.4,0-6.1,0-6.3C51.1,69.3,49.9,67.6,47.9,66.8z"/><path d="M40.3,63.1L40.3,63.1c1.9-0.5,3.2-2.2,3.3-4.4c0.1-2.2-1.1-4.2-2.9-4.9C38,52.6,37,52.2,36.5,52l0,0   c-15-6.3-15.1-6.3-16-6.3c-1.5-0.1-2.8,0.7-3.7,2.1c0,0,0,0,0,0C15.3,50.4,14.7,58,15.2,63c0.2,1.9,0.5,3.2,1,4.1   c0.7,1.4,2,2.3,3.5,2.4c0.1,0,0.2,0,0.2,0c0.8,0,2-0.4,14.6-4.5C38.5,63.7,39.8,63.3,40.3,63.1z"/><path d="M60.6,56.7c0.1,0,0.2,0,0.3,0c0.1,0,0.2,0,0.4-0.1c0.7-0.3,2.1-0.6,4.4-1.2c0,0,0,0,0,0c15.7-3.9,15.8-4,16.6-4.5   c1.2-0.8,1.8-2.2,1.7-3.8v-0.1c0,0,0-0.1,0-0.1c-0.4-4.1-7.2-14.2-10.6-15.9c-1.5-0.7-3-0.6-4.2,0.2c-0.8,0.5-0.9,0.7-9.4,12.5   c-1.4,1.9-3.5,4.9-3.7,5.1c-1.2,1.5-1.3,3.7-0.1,5.5C57.1,56,58.9,56.9,60.6,56.7z"/><path d="M83,69.7c-0.7-0.5-0.8-0.6-14.6-5.2c-2.2-0.8-5.6-1.9-5.9-2c-1.8-0.7-3.9-0.1-5.3,1.6c-1.4,1.8-1.6,4-0.5,5.8l2.3,3.9   c8.2,13.6,8.6,14.1,9.3,14.7c0.7,0.6,1.5,0.8,2.4,0.8c0.6,0,1.2-0.1,1.7-0.4c3.6-1.5,11.3-11.3,11.8-15.3   C84.7,72.1,84.2,70.6,83,69.7z"/></g></svg>